<svg xmlns="http://www.w3.org/2000/svg" width="365.492" height="53.858"><path fill="#FFF" d="M38.915 6.449l-5.022 8.698c1.219.259 2.37.704 3.422 1.301l7.86-13.614H17.579L3.668 26.93h4.173L19.665 6.45h19.25v-.001z"/><path fill="#FFF" d="M37.315 37.41a11.99 11.99 0 01-5.938 1.566c-6.654 0-12.047-5.394-12.047-12.047H3.668l13.911 24.095h27.595L37.315 37.41z"/><path fill="#ED771B" d="M31.377 18.496c4.65 0 8.433 3.783 8.433 8.433s-3.783 8.433-8.433 8.433-8.433-3.783-8.433-8.433 3.783-8.433 8.433-8.433m0-3.614c-6.654 0-12.047 5.394-12.047 12.047 0 6.654 5.394 12.047 12.047 12.047s12.047-5.394 12.047-12.047c0-6.653-5.393-12.047-12.047-12.047z"/><circle fill="#FFF" cx="44.767" cy="13.064" r="2.409"/><circle fill="#FFF" cx="50.653" cy="26.93" r="3.012"/><circle fill="#FFF" cx="49.12" cy="19.398" r="2.711"/><circle fill="#FFF" cx="44.732" cy="40.877" r="2.409"/><circle fill="#FFF" cx="49.111" cy="34.505" r="2.711"/><path d="M76.537 43.752h.972v7.244h-.972v-5.867l-3.86 5.867h-.972v-7.244h.972v5.827l3.86-5.827zm6.847 7.244h-.972v-7.244h.972v3.022h3.643v-3.022h.972v7.244h-.972v-3.405h-3.643v3.405zm8.771-6.427v-.817h5.681v.818h-2.348v6.425h-.972V44.57h-2.36v-.001zm14.61 2.277v.817h-3.798v2.514h4.305v.818h-5.277v-7.244h5.163v.818h-4.191v2.277h3.798zm7.654-3.094c1.479 0 2.453.579 2.453 2.079 0 1.355-.672 2.277-2.546 2.277h-1.883v2.887h-.972v-7.244h2.948zm-1.976 3.539h1.779c1.148 0 1.655-.486 1.655-1.438 0-.89-.538-1.283-1.655-1.283h-1.779v2.721zm8.616 3.705h-1.045l2.743-7.244h1.035l2.743 7.244h-1.045l-.683-1.872h-3.063l-.685 1.872zm3.478-2.691l-1.262-3.57-1.262 3.57h2.524zm10.21-4.553h1.19l-3.446 3.353 3.674 3.891h-1.272l-3.405-3.777v3.777h-.972v-7.244h.972v3.301l3.259-3.301zm4.654.817v-.817h5.681v.818h-2.348v6.425h-.972V44.57h-2.36v-.001zm14.671-.817h.972v7.244h-.972v-5.867l-3.86 5.867h-.972v-7.244h.972v5.827l3.86-5.827zm9.052 0c1.759 0 2.163.994 2.163 1.843 0 .776-.528 1.428-1.21 1.552v.031c.6.103 1.521.507 1.521 1.8 0 1.045-.528 2.018-2.587 2.018h-3.063v-7.244h3.176zm-2.205 3.074h1.956c1.066 0 1.417-.528 1.417-1.128 0-.414-.166-1.128-1.386-1.128h-1.986v2.255h-.001zm0 3.351h2.017c.672 0 1.666-.103 1.666-1.283 0-.931-.652-1.252-1.666-1.252h-2.017v2.535zm10.272.819h-.972v-7.244h.972v3.022h3.643v-3.022h.972v7.244h-.972v-3.405h-3.643v3.405zm9.642 0h-1.045l2.743-7.244h1.035l2.743 7.244h-1.045l-.683-1.872h-3.063l-.685 1.872zm3.477-2.691l-1.262-3.57-1.262 3.57h2.524zm8.637-.186l-1.769 2.877h-1.2l1.966-2.981c-.672-.041-1.966-.414-1.966-2.101 0-1.179.631-2.162 2.494-2.162h3.094v7.244h-.972v-2.877h-1.647zm-.393-3.55c-1.303 0-1.583.786-1.583 1.355 0 .579.238 1.377 1.717 1.377h1.903v-2.732h-2.037zm19.564 4.026c-.124 1.045-.745 2.617-3.063 2.617-2.152 0-3.446-1.397-3.446-3.714 0-3.849 2.805-3.963 3.415-3.963 2.307 0 2.887 1.355 3.001 2.453h-.972c-.052-.517-.372-1.636-2.028-1.636-1.812 0-2.381 1.521-2.381 3.105 0 1.686.921 2.939 2.453 2.939 1.159 0 1.986-.766 2.049-1.8h.971v-.001zm9.248-4.843h.972v7.244h-.972v-5.867l-3.86 5.867h-.972v-7.244h.972v5.827l3.86-5.827zm11.969 4.843c-.124 1.045-.745 2.617-3.062 2.617-2.153 0-3.446-1.397-3.446-3.714 0-3.849 2.803-3.963 3.415-3.963 2.308 0 2.886 1.355 3.001 2.453h-.972c-.052-.517-.374-1.636-2.029-1.636-1.812 0-2.381 1.521-2.381 3.105 0 1.686.921 2.939 2.453 2.939 1.159 0 1.986-.766 2.049-1.8h.971v-.001zm3.672-4.026v-.817h5.681v.818h-2.349v6.425h-.972V44.57h-2.359v-.001zm14.608 2.277v.817h-3.798v2.514h4.305v.818h-5.277v-7.244h5.163v.818h-4.191v2.277h3.798zm5.677-1.935h-.021l.021.279v5.806h-.972v-7.244h1.459l2.266 5.96 2.267-5.96h1.46v7.244h-.972V45.19l.021-.279h-.031l-2.348 6.085h-.786l-2.364-6.085zm11.504 6.085h-1.045l2.743-7.244h1.036l2.743 7.244h-1.045l-.683-1.872h-3.063l-.686 1.872zm3.477-2.691l-1.262-3.57-1.262 3.57h2.524zm14.576-4.77c1.614 0 3.456.89 3.456 3.839 0 3.787-3.012 3.839-3.456 3.839-.476 0-3.456-.052-3.456-3.839 0-2.536 1.438-3.839 3.456-3.839zm0 6.861c.507 0 2.421-.103 2.421-3.022 0-1.707-.755-3.022-2.421-3.022-2.215 0-2.422 2.224-2.422 3.022 0 1.169.352 3.022 2.422 3.022zm8.916-3.653h2.225c.724 0 2.421.114 2.421 2.152 0 .962-.455 2.101-2.41 2.101h-3.208v-7.244h5.143v.818h-4.17l-.001 2.173zm0 3.434h2.029c.766 0 1.624-.217 1.624-1.272 0-1.159-.911-1.345-1.624-1.345h-2.029v2.617zm13.305-6.425h1.024l-2.453 5.95c-.569 1.377-1.272 1.398-1.841 1.398-.31 0-.507-.021-.807-.103v-.848c.228.083.445.114.683.114.403 0 .838-.083 1.138-1.066l-2.753-5.444h1.19l2.081 4.356 1.738-4.357zm5.699 0v2.122c0 1.128.579 1.231 1.749 1.231.414 0 1.066-.052 1.407-.072v-3.281h.972v7.244h-.972V47.85c-.383.021-1.2.072-1.593.072-1.779 0-2.536-.341-2.536-1.893v-2.277h.973zm13.801 3.094v.817h-3.798v2.514h4.305v.818H323.8v-7.244h5.163v.818h-4.191v2.277h3.798zm5.679 4.15h-.972v-7.244h.972v3.022h3.643v-3.022h.972v7.244h-.972v-3.405h-3.643v3.405zm14.349-7.244h.972v7.244h-.972v-5.867l-3.86 5.867h-.972v-7.244h.972v5.827l3.86-5.827zm8.535 4.367l-1.77 2.877h-1.2l1.966-2.981c-.672-.041-1.966-.414-1.966-2.101 0-1.179.631-2.162 2.494-2.162h3.094v7.244h-.972v-2.877h-1.646zm-.394-3.55c-1.303 0-1.584.786-1.584 1.355 0 .579.238 1.377 1.717 1.377h1.905v-2.732h-2.038zM178.1 36.994h-5.533V3.474h21.954v33.52h-5.51V9.125H178.1v27.869zm22.11 0V3.474h8.921c3.324 0 5.494.164 6.517.484 1.631.515 2.974 1.623 4.035 3.309 1.061 1.694 1.592 3.871 1.592 6.54 0 2.426-.461 4.456-1.374 6.096-.914 1.639-2.061 2.786-3.435 3.449-1.366.663-3.73.999-7.086.999h-3.637v12.644h-5.533v-.001zm5.534-27.846v9.506h3.067c2.061 0 3.458-.14 4.199-.43.733-.289 1.343-.812 1.81-1.569.476-.757.71-1.678.71-2.778 0-1.108-.243-2.052-.726-2.809-.492-.764-1.092-1.272-1.81-1.538-.718-.257-2.232-.382-4.551-.382h-2.699zm18.981 11.293c0-3.995.585-7.282 1.771-9.865 1.178-2.583 2.724-4.512 4.629-5.775 1.905-1.264 4.214-1.897 6.93-1.897 3.933 0 7.133 1.499 9.615 4.504 2.474 3.005 3.715 7.282 3.715 12.83 0 5.604-1.312 9.99-3.933 13.143-2.302 2.794-5.424 4.183-9.374 4.183-3.981 0-7.119-1.382-9.42-4.137-2.623-3.152-3.933-7.483-3.933-12.986zm5.712-.226c0 3.855.733 6.744 2.193 8.671 1.468 1.928 3.278 2.895 5.448 2.895 2.177 0 3.981-.96 5.416-2.872 1.437-1.912 2.146-4.846 2.146-8.812 0-3.887-.694-6.759-2.091-8.624-1.39-1.858-3.216-2.786-5.471-2.786s-4.098.937-5.51 2.809c-1.42 1.882-2.131 4.785-2.131 8.719zm41.591-16.741v3.317c8.023.398 12.027 4.784 12.027 13.167 0 8.374-4.004 12.753-12.027 13.151v3.886h-5.533v-3.887c-7.953-.383-11.934-4.761-11.934-13.151 0-8.398 3.981-12.784 11.934-13.167V3.474h5.533zm0 8.983v14.977c4.394 0 6.587-2.529 6.587-7.586 0-4.924-2.193-7.391-6.587-7.391zm-5.533 14.977V12.457c-4.339 0-6.516 2.521-6.516 7.547-.001 4.957 2.176 7.43 6.516 7.43zm28.144 9.56V9.148h-8.163V3.474h21.837v5.674h-8.14v27.847h-5.534v-.001zm17.286 0V3.474h20.402v5.674h-14.868v7.43h13.814v5.643h-13.814v9.123h15.367v5.651h-20.901v-.001zm22.821 0l9.397-17.49-8.53-16.03h6.493l5.51 10.77 5.401-10.77h6.423l-8.53 16.281 9.397 17.241h-6.697l-6.104-11.59-6.11 11.59h-6.651v-.002zM148.13 7.408c-2.482-3.005-5.682-4.504-9.615-4.504-2.716 0-5.027.632-6.93 1.897-1.905 1.264-3.449 3.192-4.629 5.775-1.186 2.584-1.771 5.869-1.771 9.865 0 5.502 1.312 9.834 3.933 12.986 2.302 2.755 5.44 4.137 9.421 4.137 3.95 0 7.07-1.39 9.374-4.183 2.622-3.153 3.933-7.539 3.933-13.143-.001-5.549-1.241-9.826-3.716-12.83zm-4.175 21.501c-1.436 1.912-3.239 2.872-5.416 2.872-2.17 0-3.981-.968-5.448-2.895-1.46-1.928-2.193-4.815-2.193-8.671 0-3.933.71-6.837 2.131-8.717 1.413-1.874 3.254-2.809 5.51-2.809 2.255 0 4.082.929 5.471 2.786 1.397 1.866 2.092 4.737 2.092 8.624-.001 3.964-.711 6.899-2.147 8.81zm-73.331 8.085h5.581l11.091-21.86v21.86h5.284V3.474h-5.558L75.908 25.811V3.474h-5.284v33.52zm46.091-11.799c-.356 1.502-.898 2.741-1.628 3.714-1.436 1.912-3.239 2.872-5.416 2.872-2.17 0-3.981-.968-5.448-2.895-1.46-1.928-2.193-4.815-2.193-8.671 0-3.933.71-6.837 2.131-8.717 1.413-1.874 3.254-2.809 5.51-2.809 2.255 0 4.082.929 5.471 2.786.714.953 1.241 2.172 1.59 3.652h5.82c-.551-3.133-1.639-5.715-3.289-7.717-2.482-3.005-5.682-4.504-9.615-4.504-2.716 0-5.027.632-6.93 1.897-1.905 1.264-3.449 3.192-4.629 5.775-1.186 2.584-1.771 5.869-1.771 9.865 0 5.502 1.312 9.834 3.933 12.986 2.302 2.755 5.44 4.137 9.421 4.137 3.949 0 7.07-1.39 9.374-4.183 1.79-2.152 2.953-4.891 3.521-8.186-.001-.002-5.852-.002-5.852-.002z" fill="#FFF"/></svg>